Coordinates
version=1
nRows=19
nColumns=63
inDegrees=yes

Units are S.I. units (second, meters, Newtons, ...)
If the header above contains a line with 'inDegrees', this indicates whether rotational values are in degrees (yes) or radians (no).

endheader
time	pelvis_tilt	pelvis_list	pelvis_rotation	pelvis_tx	pelvis_ty	pelvis_tz	hip_flexion_r	hip_adduction_r	hip_rotation_r	knee_angle_r	knee_angle_r_beta	ankle_angle_r	subtalar_angle_r	mtp_angle_r	hip_flexion_l	hip_adduction_l	hip_rotation_l	knee_angle_l	knee_angle_l_beta	ankle_angle_l	subtalar_angle_l	mtp_angle_l	L5_S1_Flex_Ext	L5_S1_Lat_Bending	L5_S1_axial_rotation	L4_L5_Flex_Ext	L4_L5_Lat_Bending	L4_L5_axial_rotation	L3_L4_Flex_Ext	L3_L4_Lat_Bending	L3_L4_axial_rotation	L2_L3_Flex_Ext	L2_L3_Lat_Bending	L2_L3_axial_rotation	L1_L2_Flex_Ext	L1_L2_Lat_Bending	L1_L2_axial_rotation	L1_T12_Flex_Ext	L1_T12_Lat_Bending	L1_T12_axial_rotation	Abs_r3	Abs_r2	Abs_r1	Abs_t1	Abs_t2	neck_flexion	neck_bending	neck_rotation	arm_flex_r	arm_add_r	arm_rot_r	elbow_flex_r	pro_sup_r	wrist_flex_r	wrist_dev_r	arm_flex_l	arm_add_l	arm_rot_l	elbow_flex_l	pro_sup_l	wrist_flex_l	wrist_dev_l
5.762712	5.879733	-1.712108	91.239556	0.129249	0.960584	0.429606	-2.107288	7.395218	-5.106581	0.442760	0.007728	22.516033	4.855904	0.000000	-1.761649	-8.137796	-7.525219	7.870424	0.137365	30.034557	-8.163552	0.000000	0.113562	0.286584	-0.346878	0.210895	0.381156	-0.368558	0.186570	0.696800	-0.368558	0.129790	0.696800	-0.303519	0.105453	0.584401	-0.281839	0.064889	0.443918	-0.260159	0.811159	3.241892	-1.929233	0.000000	0.000000	21.385210	-1.111946	2.235573	-0.430080	-14.210212	48.891929	22.428518	62.031465	-4.803649	-9.496037	15.618077	-5.949372	188.189548	0.532151	10.396075	-1.536544	-9.976436
5.779661	5.873881	-1.730988	91.287532	0.129340	0.960564	0.429065	-2.115600	7.397260	-5.101223	0.455475	0.007950	22.539329	4.787388	0.000000	-1.780427	-8.158544	-7.607703	7.725418	0.134834	30.316653	-7.705816	0.000000	0.125120	0.272696	-0.332175	0.232360	0.362686	-0.352935	0.205560	0.663034	-0.352935	0.143000	0.663034	-0.290653	0.116186	0.556083	-0.269892	0.071494	0.422407	-0.249131	0.893720	3.084797	-1.847455	0.000000	0.000000	22.136028	-1.065675	2.024853	-0.631375	-14.095785	48.667056	22.354910	62.279860	-4.913627	-9.404297	15.395593	-5.923799	190.519737	0.655125	10.745057	-1.913095	-9.744591
5.796610	5.846537	-1.768367	91.347360	0.129462	0.960529	0.428506	-2.103581	7.377790	-5.201346	0.471364	0.008227	22.576085	4.786520	0.000000	-1.781606	-8.153980	-7.655065	7.601797	0.132676	30.468801	-7.412047	0.000000	0.137659	0.254262	-0.317474	0.255647	0.338169	-0.337316	0.226161	0.618214	-0.337316	0.157331	0.618214	-0.277790	0.127830	0.518492	-0.257948	0.078659	0.393853	-0.238106	0.983287	2.876268	-1.765697	0.000000	0.000000	22.997667	-1.017853	1.703891	-0.677684	-13.968736	49.547082	22.154166	61.706985	-4.961227	-9.581270	15.238929	-6.034006	191.279501	1.144076	11.194541	-2.191701	-9.527041
5.813559	5.809709	-1.821569	91.440294	0.129582	0.960480	0.427969	-2.071693	7.351374	-5.418557	0.487890	0.008515	22.611308	4.841436	0.000000	-1.757223	-8.146147	-7.763770	7.510203	0.131078	30.555869	-7.118279	0.000000	0.149947	0.232756	-0.310271	0.278467	0.309566	-0.329663	0.246348	0.565923	-0.329663	0.171375	0.565923	-0.271487	0.139241	0.474636	-0.252095	0.085680	0.360539	-0.232703	1.071059	2.632983	-1.725634	0.000000	0.000000	23.916986	-0.977782	1.258638	-0.563940	-13.850007	51.459009	21.882534	60.277240	-5.000989	-9.979506	15.145237	-6.280722	190.491178	1.996256	11.741526	-2.467064	-9.323551
5.830508	5.757198	-1.889862	91.538197	0.129761	0.960426	0.427484	-2.014826	7.311333	-5.832918	0.513691	0.008966	22.674176	5.111409	0.000000	-1.716612	-8.133982	-8.030445	7.442334	0.129893	30.606905	-6.728380	0.000000	0.161986	0.207167	-0.309278	0.300824	0.275532	-0.328608	0.266127	0.503706	-0.328608	0.185134	0.503706	-0.270618	0.150420	0.422455	-0.251288	0.092559	0.320901	-0.231958	1.157049	2.343513	-1.720111	0.000000	0.000000	24.833770	-0.949219	0.677440	-0.234649	-13.706509	54.689258	21.449299	57.761739	-4.889252	-10.680782	15.075176	-6.704535	187.973449	3.146173	12.686560	-2.654600	-9.045469
5.847458	5.698889	-1.964440	91.630876	0.129974	0.960369	0.427099	-1.942765	7.268128	-6.232011	0.540444	0.009433	22.724507	5.347289	0.000000	-1.663201	-8.117314	-8.329209	7.403938	0.129223	30.602741	-6.423973	0.000000	0.172436	0.179384	-0.315444	0.320231	0.238580	-0.335159	0.283295	0.436154	-0.335159	0.197077	0.436154	-0.276014	0.160124	0.365799	-0.256298	0.098530	0.277865	-0.236583	1.231695	2.029225	-1.754405	0.000000	0.000000	25.680391	-0.918757	-0.007342	0.227730	-13.574784	58.464575	20.951836	54.866148	-4.657986	-11.511357	15.036325	-7.203882	184.571742	4.447521	13.327818	-2.688925	-8.791856
5.864407	5.641671	-2.035150	91.723675	0.130188	0.960306	0.426838	-1.866324	7.229425	-6.520585	0.565763	0.009874	22.744527	5.420278	0.000000	-1.604188	-8.092962	-8.517110	7.392120	0.129017	30.504392	-6.369502	0.000000	0.180321	0.150937	-0.328150	0.334874	0.200747	-0.348659	0.296249	0.366989	-0.348659	0.206089	0.366989	-0.287131	0.167446	0.307791	-0.266622	0.103035	0.233802	-0.246112	1.288013	1.707433	-1.825071	0.000000	0.000000	26.401454	-0.881866	-0.751476	0.723391	-13.466928	62.167989	20.488762	52.041034	-4.327833	-12.332365	15.029003	-7.758358	180.536036	5.837923	13.698846	-2.610419	-8.525237
5.881356	5.593080	-2.096244	91.832130	0.130377	0.960235	0.426754	-1.774788	7.201405	-6.806194	0.616843	0.010766	22.766211	5.454462	0.000000	-1.520899	-8.084048	-8.726255	7.446894	0.129973	30.387764	-6.310256	0.000000	0.186295	0.122953	-0.351442	0.345968	0.163527	-0.373408	0.306064	0.298947	-0.373408	0.212917	0.298947	-0.307512	0.172994	0.250725	-0.285547	0.106449	0.190454	-0.263582	1.330686	1.390865	-1.954617	0.000000	0.000000	26.905692	-0.812248	-1.503277	1.293704	-13.390602	65.991078	20.048605	49.032890	-3.891769	-13.095875	15.084064	-8.346225	175.684734	7.361910	14.137191	-2.467112	-8.234422
5.898305	5.546201	-2.127119	91.911215	0.130593	0.960172	0.426822	-1.713390	7.175548	-7.122059	0.653068	0.011398	22.800700	5.609336	0.000000	-1.471577	-8.073269	-8.941064	7.511573	0.131102	30.241211	-6.303399	0.000000	0.188204	0.095809	-0.378924	0.349513	0.127426	-0.402607	0.309200	0.232951	-0.402607	0.215098	0.232951	-0.331559	0.174766	0.195374	-0.307876	0.107540	0.148409	-0.284193	1.344321	1.083814	-2.107464	0.000000	0.000000	27.167771	-0.696738	-2.160079	2.006075	-13.325762	70.294154	19.518422	45.579307	-3.381061	-13.974689	15.163429	-8.931371	171.043764	8.802920	14.166813	-2.265776	-7.967433
5.915254	5.513553	-2.125413	91.966205	0.130787	0.960080	0.427035	-1.681427	7.162754	-7.326213	0.683077	0.011922	22.839622	5.676152	0.000000	-1.447491	-8.064830	-9.040816	7.603222	0.132701	30.065737	-6.475724	0.000000	0.186544	0.072174	-0.406955	0.346432	0.095991	-0.432390	0.306474	0.175483	-0.432390	0.213202	0.175483	-0.356085	0.173225	0.147176	-0.330651	0.106591	0.111797	-0.305216	1.332468	0.816442	-2.263361	0.000000	0.000000	27.162715	-0.583343	-2.702076	2.669695	-13.288821	73.913234	19.078295	42.754562	-2.849168	-14.674692	15.279159	-9.528693	165.892862	10.251528	14.667953	-2.128156	-7.667856
5.932203	5.493642	-2.099555	92.003043	0.130967	0.959943	0.427427	-1.667784	7.160976	-7.445663	0.707881	0.012355	22.883176	5.685504	0.000000	-1.432280	-8.066242	-9.088036	7.722958	0.134791	29.907228	-6.703026	0.000000	0.182602	0.052233	-0.432222	0.339111	0.069470	-0.459236	0.299998	0.126999	-0.459236	0.208696	0.126999	-0.378194	0.169565	0.106514	-0.351180	0.104339	0.080909	-0.324166	1.304311	0.590870	-2.403887	0.000000	0.000000	26.903315	-0.450526	-3.079330	3.284087	-13.270945	76.839332	18.703427	40.570491	-2.359450	-15.205476	15.477786	-10.087783	161.187682	11.632249	15.189255	-2.022367	-7.377920
5.949153	5.499643	-2.063573	92.012003	0.131119	0.959734	0.428011	-1.658398	7.179561	-7.493909	0.725457	0.012662	22.932217	5.687798	0.000000	-1.406430	-8.082983	-9.005749	7.875579	0.137455	29.762673	-7.089953	0.000000	0.177379	0.037673	-0.449850	0.329410	0.050105	-0.477965	0.291416	0.091598	-0.477965	0.202726	0.091598	-0.393618	0.164714	0.076823	-0.365503	0.101354	0.058355	-0.337387	1.266999	0.426164	-2.501929	0.000000	0.000000	26.465086	-0.346486	-3.365291	3.761982	-13.265400	78.627673	18.471127	39.423409	-1.933884	-15.485066	15.722391	-10.642943	156.275825	12.988718	16.364679	-2.082300	-7.017731
5.966102	5.513108	-2.002580	92.033962	0.131210	0.959484	0.428784	-1.669480	7.201618	-7.584585	0.736139	0.012848	23.007276	5.760217	0.000000	-1.376042	-8.102354	-8.836026	8.055562	0.140596	29.673711	-7.525135	0.000000	0.168659	0.026769	-0.469560	0.313218	0.035603	-0.498908	0.277091	0.065086	-0.498908	0.192761	0.065086	-0.410865	0.156617	0.054587	-0.381518	0.096372	0.041465	-0.352170	1.204718	0.302816	-2.611552	0.000000	0.000000	25.882894	-0.230969	-3.442212	4.155984	-13.282863	79.544936	18.348170	39.093562	-1.636955	-15.594413	16.011887	-11.195568	151.519289	14.272781	18.243582	-2.249175	-6.668797
5.983051	5.539122	-1.935551	92.079375	0.131218	0.959188	0.429737	-1.682233	7.231459	-7.651899	0.737819	0.012877	23.085203	5.814778	0.000000	-1.316097	-8.123302	-8.482811	8.261789	0.144195	29.618818	-8.111066	0.000000	0.158427	0.019765	-0.488457	0.294214	0.026288	-0.518986	0.260279	0.048058	-0.518986	0.181066	0.048058	-0.427400	0.147115	0.040306	-0.396871	0.090525	0.030617	-0.366343	1.131627	0.223591	-2.716651	0.000000	0.000000	25.260876	-0.131065	-3.392629	4.361506	-13.297811	79.124363	18.415259	39.926143	-1.428444	-15.454305	16.326738	-11.734630	147.065256	15.461800	20.667037	-2.597850	-6.329010
6.000000	5.579057	-1.876084	92.157671	0.131132	0.958863	0.430821	-1.684418	7.269764	-7.723722	0.731135	0.012761	23.156579	5.878749	0.000000	-1.218571	-8.149798	-8.001078	8.479766	0.148000	29.602617	-8.752819	0.000000	0.148589	0.016656	-0.511562	0.275944	0.022153	-0.543534	0.244117	0.040498	-0.543534	0.169822	0.040498	-0.447617	0.137980	0.033966	-0.415644	0.084904	0.025801	-0.383671	1.061355	0.188420	-2.845153	0.000000	0.000000	24.666053	-0.046668	-3.225628	4.371386	-13.319839	77.398928	18.698681	41.850738	-1.305906	-15.093840	16.615868	-12.262048	142.945498	16.531352	23.423406	-3.170611	-5.995396
6.016949	5.618833	-1.820055	92.278295	0.130950	0.958535	0.431971	-1.683214	7.303424	-7.827386	0.719236	0.012553	23.235355	5.965961	0.000000	-1.092500	-8.170382	-7.413967	8.704964	0.151930	29.608551	-9.405879	0.000000	0.138422	0.015184	-0.539644	0.257064	0.020195	-0.573371	0.227414	0.036918	-0.573371	0.158203	0.036918	-0.472188	0.128539	0.030963	-0.438460	0.079094	0.023520	-0.404733	0.988736	0.171763	-3.001336	0.000000	0.000000	24.160531	0.007115	-2.997465	4.183921	-13.343771	74.414242	19.185331	44.880756	-1.251985	-14.610414	16.853700	-12.779172	139.366454	17.444155	26.372901	-3.931583	-5.746178
6.033898	5.666993	-1.777286	92.431066	0.130677	0.958226	0.433132	-1.671025	7.339232	-7.981242	0.701457	0.012243	23.308370	6.123228	0.000000	-0.934665	-8.203292	-6.875326	8.937164	0.155983	29.642342	-9.886757	0.000000	0.129460	0.016017	-0.569462	0.240421	0.021303	-0.605053	0.212690	0.038945	-0.605053	0.147960	0.038945	-0.498279	0.120217	0.032663	-0.462687	0.073974	0.024811	-0.427096	0.924722	0.181191	-3.167174	0.000000	0.000000	23.766751	0.011130	-2.779453	3.794019	-13.379828	70.263991	19.886622	48.795563	-1.257540	-13.992062	17.024386	-13.250143	136.459164	18.182889	29.206378	-4.907626	-5.558832
6.050847	5.715841	-1.753495	92.624264	0.130294	0.957941	0.434210	-1.647422	7.369482	-8.173461	0.679717	0.011863	23.375797	6.300207	0.000000	-0.754102	-8.226475	-6.253583	9.156802	0.159816	29.618726	-10.396902	0.000000	0.123389	0.018466	-0.603774	0.229146	0.024559	-0.641509	0.202716	0.044897	-0.641509	0.141021	0.044897	-0.528302	0.114579	0.037655	-0.490566	0.070504	0.028603	-0.452830	0.881356	0.208887	-3.358008	0.000000	0.000000	23.497395	-0.024472	-2.556875	3.200900	-13.419891	64.975417	20.776502	53.800205	-1.335553	-13.287268	17.104626	-13.663237	134.174219	18.772829	31.768754	-6.011265	-5.413685
6.067797	5.768915	-1.744728	92.859861	0.129823	0.957705	0.435158	-1.617178	7.400972	-8.432987	0.656053	0.011450	23.431482	6.515965	0.000000	-0.558872	-8.251206	-5.603679	9.362781	0.163411	29.532397	-10.883123	0.000000	0.119676	0.022532	-0.645958	0.222249	0.029968	-0.686331	0.196615	0.054785	-0.686331	0.136777	0.054785	-0.565214	0.111131	0.045948	-0.524841	0.068383	0.034903	-0.484469	0.854831	0.254890	-3.592627	0.000000	0.000000	23.360210	-0.104074	-2.365851	2.574241	-13.491974	59.736435	21.741222	58.643137	-1.486405	-12.690958	17.084918	-13.997923	132.792187	19.202113	33.531223	-7.094042	-5.296936
